<svg width="304" height="287" viewBox="0 0 304 287" fill="none" xmlns="http://www.w3.org/2000/svg">
<g id="sun">
<g id="flare">
<path id="Vector" d="M152 54.4411C145.935 54.4411 141.019 49.7994 141.019 44.074V10.3671C141.019 4.6417 145.935 0 152 0C158.065 0 162.981 4.6417 162.981 10.3671V44.074C162.981 49.7994 158.065 54.4411 152 54.4411Z" fill="#F3B640"/>
<path id="Vector_2" d="M152 287C145.935 287 141.019 282.358 141.019 276.633V242.926C141.019 237.201 145.935 232.559 152 232.559C158.065 232.559 162.981 237.201 162.981 242.926V276.633C162.981 282.36 158.065 287 152 287Z" fill="#F3B640"/>
<path id="Vector_3" d="M293.019 153.867H257.315C251.251 153.867 246.334 149.225 246.334 143.5C246.334 137.775 251.251 133.133 257.315 133.133H293.019C299.083 133.133 304 137.775 304 143.5C304 149.225 299.085 153.867 293.019 153.867Z" fill="#F3B640"/>
<path id="Vector_4" d="M46.6846 153.867H10.9812C4.91664 153.867 0 149.225 0 143.5C0 137.775 4.91664 133.133 10.9812 133.133H46.6846C52.7492 133.133 57.6658 137.775 57.6658 143.5C57.6658 149.225 52.7492 153.867 46.6846 153.867Z" fill="#F3B640"/>
<path id="Vector_5" d="M226.47 83.5616C223.66 83.5616 220.849 82.5498 218.706 80.5247C214.417 76.476 214.417 69.9116 218.706 65.8643L243.952 42.031C248.24 37.9823 255.194 37.9809 259.481 42.031C263.769 46.0797 263.769 52.6441 259.481 56.6915L234.234 80.5247C232.091 82.5498 229.28 83.5616 226.47 83.5616Z" fill="#F3B640"/>
<path id="Vector_6" d="M52.2836 248.007C49.4739 248.007 46.6627 246.995 44.5192 244.97C40.2306 240.922 40.2306 234.357 44.5192 230.31L69.7656 206.475C74.0541 202.427 81.0074 202.427 85.2945 206.475C89.583 210.524 89.583 217.088 85.2945 221.136L60.048 244.97C57.9045 246.995 55.0948 248.007 52.2836 248.007Z" fill="#F3B640"/>
<path id="Vector_7" d="M251.715 248.007C248.905 248.007 246.094 246.995 243.951 244.97L218.704 221.136C214.416 217.087 214.416 210.523 218.704 206.475C222.993 202.427 229.946 202.427 234.233 206.475L259.479 230.31C263.768 234.359 263.768 240.923 259.479 244.97C257.336 246.995 254.526 248.007 251.715 248.007Z" fill="#F3B640"/>
<path id="Vector_8" d="M77.53 83.5616C74.7203 83.5616 71.9091 82.5498 69.7656 80.5247L44.5192 56.6915C40.2306 52.6428 40.2306 46.0797 44.5192 42.031C48.8077 37.9823 55.761 37.9809 60.048 42.031L85.2945 65.8643C89.583 69.913 89.583 76.476 85.2945 80.5247C83.1509 82.5498 80.3412 83.5616 77.53 83.5616Z" fill="#F3B640"/>
</g>
<g id="full sun">
<path id="moon" d="M152.174 138.101C152.174 171.527 152.174 203 152.174 203C114.819 203 83 171.527 83 138.101C83 104.674 114.974 71.7787 152.174 74.1178C152.174 74.1178 152.174 104.674 152.174 138.101Z" fill="#F3B640"/>
<path id="moon_2" d="M151.826 138.899C151.826 105.473 151.826 74 151.826 74C189.181 74 221 105.473 221 138.899C221 172.326 189.026 205.221 151.826 202.882C151.826 202.882 151.826 172.326 151.826 138.899Z" fill="#F3B640"/>
</g>
</g>
</svg>
